<svg xmlns="http://www.w3.org/2000/svg" width="480" height="192" viewBox="0 0 480 192" font-family="-apple-system,Segoe UI,Helvetica,Arial,sans-serif">
<rect x="0.5" y="0.5" width="479" height="191" rx="12" fill="#161b22" stroke="#30363d"/>
<text x="20" y="34" font-size="11" fill="#8b949e" font-weight="600" text-anchor="start" letter-spacing="1.5">GOVEE API</text>
<rect x="20" y="44" width="111" height="22" rx="11" fill="#3fb950" fill-opacity="0.16" stroke="#3fb950" stroke-opacity="0.5"/>
<circle cx="33" cy="55" r="4" fill="#3fb950"/>
<text x="43" y="59" font-size="12" fill="#3fb950" font-weight="700" text-anchor="start">OPERATIONAL</text>
<text x="460" y="40" font-size="26" fill="#e6edf3" font-weight="700" text-anchor="end">99.7%</text>
<text x="460" y="58" font-size="10.5" fill="#8b949e" font-weight="400" text-anchor="end">uptime / 45d</text>
<rect x="20.0" y="80" width="6.8" height="24" rx="2" fill="#3fb950"/>
<rect x="29.8" y="80" width="6.8" height="24" rx="2" fill="#d29922"/>
<rect x="39.7" y="80" width="6.8" height="24" rx="2" fill="#d29922"/>
<rect x="49.5" y="80" width="6.8" height="24" rx="2" fill="#3fb950"/>
<rect x="59.4" y="80" width="6.8" height="24" rx="2" fill="#3fb950"/>
<rect x="69.2" y="80" width="6.8" height="24" rx="2" fill="#3fb950"/>
<rect x="79.1" y="80" width="6.8" height="24" rx="2" fill="#3fb950"/>
<rect x="88.9" y="80" width="6.8" height="24" rx="2" fill="#3fb950"/>
<rect x="98.8" y="80" width="6.8" height="24" rx="2" fill="#3fb950"/>
<rect x="108.6" y="80" width="6.8" height="24" rx="2" fill="#3fb950"/>
<rect x="118.4" y="80" width="6.8" height="24" rx="2" fill="#3fb950"/>
<rect x="128.3" y="80" width="6.8" height="24" rx="2" fill="#3fb950"/>
<rect x="138.1" y="80" width="6.8" height="24" rx="2" fill="#3fb950"/>
<rect x="148.0" y="80" width="6.8" height="24" rx="2" fill="#3fb950"/>
<rect x="157.8" y="80" width="6.8" height="24" rx="2" fill="#3fb950"/>
<rect x="167.7" y="80" width="6.8" height="24" rx="2" fill="#3fb950"/>
<rect x="177.5" y="80" width="6.8" height="24" rx="2" fill="#3fb950"/>
<rect x="187.4" y="80" width="6.8" height="24" rx="2" fill="#3fb950"/>
<rect x="197.2" y="80" width="6.8" height="24" rx="2" fill="#3fb950"/>
<rect x="207.0" y="80" width="6.8" height="24" rx="2" fill="#3fb950"/>
<rect x="216.9" y="80" width="6.8" height="24" rx="2" fill="#3fb950"/>
<rect x="226.7" y="80" width="6.8" height="24" rx="2" fill="#3fb950"/>
<rect x="236.6" y="80" width="6.8" height="24" rx="2" fill="#3fb950"/>
<rect x="246.4" y="80" width="6.8" height="24" rx="2" fill="#3fb950"/>
<rect x="256.3" y="80" width="6.8" height="24" rx="2" fill="#3fb950"/>
<rect x="266.1" y="80" width="6.8" height="24" rx="2" fill="#3fb950"/>
<rect x="276.0" y="80" width="6.8" height="24" rx="2" fill="#3fb950"/>
<rect x="285.8" y="80" width="6.8" height="24" rx="2" fill="#3fb950"/>
<rect x="295.6" y="80" width="6.8" height="24" rx="2" fill="#3fb950"/>
<rect x="305.5" y="80" width="6.8" height="24" rx="2" fill="#3fb950"/>
<rect x="315.3" y="80" width="6.8" height="24" rx="2" fill="#3fb950"/>
<rect x="325.2" y="80" width="6.8" height="24" rx="2" fill="#3fb950"/>
<rect x="335.0" y="80" width="6.8" height="24" rx="2" fill="#3fb950"/>
<rect x="344.9" y="80" width="6.8" height="24" rx="2" fill="#3fb950"/>
<rect x="354.7" y="80" width="6.8" height="24" rx="2" fill="#3fb950"/>
<rect x="364.6" y="80" width="6.8" height="24" rx="2" fill="#3fb950"/>
<rect x="374.4" y="80" width="6.8" height="24" rx="2" fill="#3fb950"/>
<rect x="384.2" y="80" width="6.8" height="24" rx="2" fill="#3fb950"/>
<rect x="394.1" y="80" width="6.8" height="24" rx="2" fill="#3fb950"/>
<rect x="403.9" y="80" width="6.8" height="24" rx="2" fill="#3fb950"/>
<rect x="413.8" y="80" width="6.8" height="24" rx="2" fill="#3fb950"/>
<rect x="423.6" y="80" width="6.8" height="24" rx="2" fill="#3fb950"/>
<rect x="433.5" y="80" width="6.8" height="24" rx="2" fill="#3fb950"/>
<rect x="443.3" y="80" width="6.8" height="24" rx="2" fill="#3fb950"/>
<rect x="453.2" y="80" width="6.8" height="24" rx="2" fill="#3fb950"/>
<text x="20" y="130" font-size="10" fill="#8b949e" font-weight="600" text-anchor="start" letter-spacing="1.2">RESPONSE TIME</text>
<text x="460" y="130" font-size="10.5" fill="#8b949e" font-weight="400" text-anchor="end">avg 268 ms · last 72 checks</text>
<defs><linearGradient id="lg" x1="0" x2="0" y1="0" y2="1"><stop offset="0" stop-color="#3fb950" stop-opacity="0.35"/><stop offset="1" stop-color="#3fb950" stop-opacity="0"/></linearGradient></defs>
<path d="M20,170 L20.0,153.6 L26.2,151.1 L32.4,151.2 L38.6,148.9 L44.8,149.8 L51.0,162.3 L57.2,148.4 L63.4,153.2 L69.6,146.0 L75.8,150.8 L82.0,165.7 L88.2,165.1 L94.4,152.8 L100.6,154.1 L106.8,165.7 L113.0,151.8 L119.2,147.5 L125.4,150.5 L131.5,153.7 L137.7,154.0 L143.9,165.3 L150.1,149.8 L156.3,170.0 L162.5,159.4 L168.7,167.4 L174.9,152.3 L181.1,151.0 L187.3,145.4 L193.5,162.9 L199.7,169.4 L205.9,149.4 L212.1,165.7 L218.3,151.8 L224.5,154.9 L230.7,160.2 L236.9,151.0 L243.1,165.9 L249.3,156.3 L255.5,161.4 L261.7,155.4 L267.9,160.8 L274.1,145.8 L280.3,146.5 L286.5,149.0 L292.7,165.3 L298.9,144.2 L305.1,145.9 L311.3,154.1 L317.5,149.3 L323.7,160.9 L329.9,159.1 L336.1,158.4 L342.3,153.5 L348.5,147.0 L354.6,164.0 L360.8,147.5 L367.0,149.5 L373.2,148.8 L379.4,150.4 L385.6,152.0 L391.8,166.3 L398.0,142.0 L404.2,154.1 L410.4,165.5 L416.6,156.7 L422.8,164.1 L429.0,162.3 L435.2,148.0 L441.4,146.4 L447.6,148.0 L453.8,153.3 L460.0,146.9 L460.0,170 Z" fill="url(#lg)"/>
<polyline points="20.0,153.6 26.2,151.1 32.4,151.2 38.6,148.9 44.8,149.8 51.0,162.3 57.2,148.4 63.4,153.2 69.6,146.0 75.8,150.8 82.0,165.7 88.2,165.1 94.4,152.8 100.6,154.1 106.8,165.7 113.0,151.8 119.2,147.5 125.4,150.5 131.5,153.7 137.7,154.0 143.9,165.3 150.1,149.8 156.3,170.0 162.5,159.4 168.7,167.4 174.9,152.3 181.1,151.0 187.3,145.4 193.5,162.9 199.7,169.4 205.9,149.4 212.1,165.7 218.3,151.8 224.5,154.9 230.7,160.2 236.9,151.0 243.1,165.9 249.3,156.3 255.5,161.4 261.7,155.4 267.9,160.8 274.1,145.8 280.3,146.5 286.5,149.0 292.7,165.3 298.9,144.2 305.1,145.9 311.3,154.1 317.5,149.3 323.7,160.9 329.9,159.1 336.1,158.4 342.3,153.5 348.5,147.0 354.6,164.0 360.8,147.5 367.0,149.5 373.2,148.8 379.4,150.4 385.6,152.0 391.8,166.3 398.0,142.0 404.2,154.1 410.4,165.5 416.6,156.7 422.8,164.1 429.0,162.3 435.2,148.0 441.4,146.4 447.6,148.0 453.8,153.3 460.0,146.9" fill="none" stroke="#3fb950" stroke-width="1.8" stroke-linejoin="round"/>
<circle cx="460.0" cy="146.9" r="3" fill="#3fb950"/>
<text x="20" y="180" font-size="10.5" fill="#8b949e" font-weight="400" text-anchor="start">openapi + app2 · hourly</text>
<text x="460" y="180" font-size="10.5" fill="#8b949e" font-weight="400" text-anchor="end">updated 2026-09-07 04:35 UTC</text>
</svg>